<svg xmlns="http://www.w3.org/2000/svg" xml:space="preserve" width="800" height="800" data-version="2">
    <path fill="#fff" d="M128.92 443.14v-55.22h15.92l.72 17.99-3.12-3.54q1.36-4.37 4.16-7.9 2.81-3.54 6.71-5.62t8.17-2.08q1.87 0 3.48.26 1.61.26 2.86.78l-4.47 18.41q-1.15-.62-3.07-1.09-1.92-.47-4-.47-2.29 0-4.22.78-1.92.78-3.32 2.24-1.41 1.45-2.19 3.43-.78 1.97-.78 4.47v27.56Z"/>
    <rect width="38.9" height="56.37" x="-19.45" y="-28.185" fill="none" rx="0" ry="0" transform="translate(148.87 415.455)"/>
    <path fill="#fff" d="M200.37 444.18q-9.15 0-15.96-3.64-6.81-3.64-10.51-10.04-3.69-6.39-3.69-14.61 0-6.45 2.08-11.8 2.08-5.36 5.88-9.21 3.79-3.84 8.94-5.98 5.15-2.13 11.29-2.13 5.82 0 10.6 2.08 4.79 2.08 8.32 5.83 3.54 3.74 5.41 8.84 1.87 5.09 1.77 11.12l-.1 4.58h-43.89l-2.5-9.46h32.76l-1.77 1.87v-2.08q-.2-2.6-1.61-4.53-1.4-1.92-3.64-3.06-2.23-1.15-5.04-1.15-4.16 0-7.02 1.61-2.86 1.62-4.32 4.63-1.45 3.02-1.45 7.49 0 4.47 1.92 7.9 1.92 3.44 5.62 5.31 3.69 1.87 8.78 1.87 3.44 0 6.24-1.04 2.81-1.04 6.04-3.54l7.8 11.03q-3.23 2.7-6.87 4.52-3.64 1.82-7.43 2.71-3.8.88-7.65.88"/>
    <rect width="54.324" height="57.41" x="-27.162" y="-28.705" fill="none" rx="0" ry="0" transform="translate(197.872 415.975)"/>
    <path fill="#fff" d="M253.72 444.18q-7.9 0-14.14-2.55t-9.98-7.02l10.19-8.73q3.22 3.22 7.28 4.73 4.05 1.51 7.69 1.51 1.36 0 2.4-.32 1.04-.31 1.82-.88.78-.57 1.19-1.35.42-.78.42-1.82 0-2.08-1.77-3.12-.83-.52-3.02-1.3-2.18-.78-5.61-1.61-4.89-1.25-8.48-3.02-3.59-1.77-5.87-4.06-2.08-2.08-3.18-4.78-1.09-2.7-1.09-6.03 0-5.1 3.07-8.95 3.07-3.84 8.06-5.98 4.99-2.13 10.82-2.13 4.57 0 8.68 1.04 4.11 1.04 7.7 2.91 3.58 1.88 6.39 4.48l-8.84 9.88q-1.77-1.77-4.16-3.18-2.39-1.4-4.78-2.28-2.39-.89-4.47-.89-1.56 0-2.76.26-1.2.26-1.98.83-.78.58-1.19 1.36-.42.78-.42 1.71 0 1.15.57 2.03.58.88 1.62 1.61.93.52 3.27 1.35 2.34.84 6.19 1.88 4.89 1.35 8.37 3.06 3.49 1.72 5.57 4.01 1.76 1.77 2.54 4.11.78 2.34.78 5.04 0 5.3-2.96 9.41t-8.11 6.45q-5.15 2.34-11.81 2.34"/>
    <rect width="47" height="57.41" x="-23.5" y="-28.705" fill="none" rx="0" ry="0" transform="translate(253.6 415.975)"/>
    <path fill="#fff" d="M312.48 444.18q-8.52 0-15.28-3.69t-10.61-10.19q-3.85-6.5-3.85-14.72 0-8.42 3.85-14.92t10.61-10.2q6.76-3.69 15.28-3.69 8.64 0 15.34 3.69 6.71 3.7 10.56 10.2 3.85 6.5 3.85 14.92 0 8.22-3.85 14.72t-10.56 10.19q-6.7 3.69-15.34 3.69m0-14.35q3.75 0 6.61-1.87 2.86-1.88 4.52-5.1 1.67-3.22 1.56-7.28.11-4.26-1.56-7.54-1.66-3.28-4.52-5.1-2.86-1.82-6.61-1.82-3.64 0-6.55 1.88-2.91 1.87-4.57 5.09-1.67 3.23-1.67 7.49 0 4.06 1.67 7.28 1.66 3.22 4.57 5.1 2.91 1.87 6.55 1.87"/>
    <rect width="59.49" height="57.41" x="-29.745" y="-28.705" fill="none" rx="0" ry="0" transform="translate(312.985 415.975)"/>
    <path fill="#fff" d="M386.32 444.18q-3.74 0-7.12-1.04t-6.19-2.76q-2.81-1.71-4.63-4-1.82-2.29-2.34-4.78l3.64-1.25-.93 12.58h-15.6v-76.75H370v34.63l-3.44-1.14q.63-2.6 2.4-4.89 1.76-2.29 4.42-4.11 2.65-1.82 5.87-2.86 3.23-1.04 6.66-1.04 7.17 0 12.74 3.75 5.56 3.74 8.79 10.24 3.22 6.5 3.22 14.82t-3.17 14.77q-3.17 6.45-8.69 10.14-5.51 3.69-12.48 3.69m-4.36-14.04q3.74 0 6.5-1.82 2.75-1.82 4.31-5.1 1.56-3.27 1.56-7.64 0-4.47-1.51-7.75-1.5-3.27-4.31-5.09-2.81-1.82-6.55-1.82-3.75 0-6.56 1.82-2.8 1.82-4.36 5.09-1.56 3.28-1.56 7.75 0 4.37 1.56 7.64 1.56 3.28 4.36 5.1 2.81 1.82 6.56 1.82"/>
    <rect width="57.51" height="78" x="-28.755" y="-39" fill="none" rx="0" ry="0" transform="translate(382.405 405.68)"/>
    <path fill="#fff" d="M421.58 443.14v-55.22h15.91l.73 17.99-3.12-3.54q1.35-4.37 4.16-7.9 2.81-3.54 6.71-5.62t8.16-2.08q1.87 0 3.49.26 1.61.26 2.86.78L456 406.22q-1.14-.62-3.06-1.09-1.93-.47-4.01-.47-2.29 0-4.21.78t-3.33 2.24q-1.4 1.45-2.18 3.43-.78 1.97-.78 4.47v27.56Z"/>
    <rect width="38.9" height="56.37" x="-19.45" y="-28.185" fill="none" rx="0" ry="0" transform="translate(441.53 415.455)"/>
    <path fill="#fff" d="M496.15 443.14v-33.9q0-4.27-2.34-6.3-2.34-2.02-6.5-2.02-4.06 0-7.23 1.5-3.17 1.51-6.08 4.94l-9.99-9.67q4.99-5.09 11.44-8.01 6.45-2.91 14.04-2.91 6.97 0 12.07 2.08 5.09 2.08 7.9 6.35 2.81 4.26 2.81 10.81v37.13Zm-14.35 1.04q-5.2 0-9.42-2.08-4.21-2.08-6.65-5.77-2.45-3.69-2.45-8.69 0-4.26 1.56-7.48 1.56-3.23 4.63-5.36 3.07-2.13 7.7-3.22 4.63-1.1 10.76-1.1h16.75l-.94 10.51h-15.39q-2.19 0-3.85.36-1.66.37-2.81 1.15-1.14.78-1.71 1.82-.58 1.04-.58 2.49 0 1.56.84 2.71.83 1.14 2.23 1.76 1.41.63 3.28.63 2.7 0 5.15-.89 2.44-.88 4.36-2.54 1.93-1.67 3.07-3.85l2.91 7.49q-2.18 3.53-5.25 6.24-3.07 2.7-6.65 4.26-3.59 1.56-7.54 1.56"/>
    <rect width="48.99" height="57.41" x="-24.495" y="-28.705" fill="none" rx="0" ry="0" transform="translate(488.275 415.975)"/>
    <path fill="#fff" d="M525.58 443.14v-55.22h15.91l.63 11.23-3.44 1.25q1.15-3.75 4.11-6.82 2.97-3.06 7.13-4.94 4.16-1.87 8.73-1.87 6.24 0 10.51 2.55 4.26 2.55 6.39 7.59 2.13 5.05 2.13 12.43v33.8h-16.74v-32.55q0-3.33-.94-5.51-.93-2.19-2.8-3.23-1.88-1.04-4.68-.93-2.19 0-4.06.67-1.87.68-3.28 1.98-1.4 1.3-2.13 2.96-.73 1.67-.73 3.75v32.86h-13.26z"/>
    <rect width="52.1" height="56.37" x="-26.05" y="-28.185" fill="none" rx="0" ry="0" transform="translate(552.13 415.455)"/>
    <path fill="#fff" d="M612.73 444.18q-7.07 0-12.74-3.64t-8.89-10.14q-3.22-6.5-3.22-14.82t3.22-14.82q3.22-6.5 8.89-10.24 5.67-3.75 12.85-3.75 3.74 0 7.22 1.15 3.49 1.14 6.24 3.12 2.76 1.97 4.53 4.47 1.77 2.49 2.18 5.3l-4.05.94v-35.57h16.74v76.96h-15.6l-.94-12.48 3.33.62q-.21 2.5-1.87 4.84-1.66 2.34-4.42 4.16-2.76 1.82-6.19 2.86-3.43 1.04-7.28 1.04m4.16-13.83q3.85 0 6.61-1.82 2.75-1.82 4.31-5.15 1.56-3.33 1.56-7.8 0-4.58-1.56-7.9-1.56-3.33-4.31-5.15-2.76-1.82-6.61-1.82-3.74 0-6.5 1.82-2.75 1.82-4.31 5.15-1.56 3.32-1.56 7.9 0 4.47 1.56 7.8t4.31 5.15q2.76 1.82 6.5 1.82"/>
    <rect width="57.82" height="78" x="-28.91" y="-39" fill="none" rx="0" ry="0" transform="translate(617.29 405.68)"/>
    <path fill="#fff" d="M665.67 444.28q-4.27 0-6.61-2.44-2.34-2.44-2.34-6.92 0-4.16 2.45-6.81 2.44-2.65 6.5-2.65 4.26 0 6.65 2.44 2.4 2.45 2.4 7.02 0 4.16-2.55 6.76-2.55 2.6-6.5 2.6"/>
    <rect width="18" height="18.82" x="-9" y="-9.41" fill="none" rx="0" ry="0" transform="translate(666.22 435.37)"/>
</svg>
