<svg xmlns="http://www.w3.org/2000/svg" xml:space="preserve" width="800" height="800" data-version="2">
    <rect width="100%" height="100%" fill="#001F3F"/>
    <path fill="#fff" d="M79.4 451.02v-65.31h18.82l.86 21.28-3.69-4.18q1.6-5.17 4.92-9.35t7.93-6.64q4.62-2.46 9.66-2.46 2.21 0 4.12.31 1.91.3 3.38.92l-5.29 21.77q-1.35-.74-3.62-1.29-2.28-.56-4.74-.56-2.71 0-4.98.93-2.28.92-3.94 2.64-1.66 1.72-2.58 4.06-.92 2.34-.92 5.29v32.59Z"/>
    <rect width="46" height="66.66" x="-23" y="-33.33" fill="none" rx="0" ry="0" transform="translate(102.9 418.19)"/>
    <path fill="#fff" d="M163.9 452.25q-10.82 0-18.88-4.3-8.05-4.31-12.42-11.87-4.37-7.56-4.37-17.28 0-7.63 2.46-13.96 2.46-6.34 6.95-10.89 4.49-4.55 10.58-7.07 6.09-2.52 13.35-2.52 6.88 0 12.54 2.46 5.66 2.46 9.84 6.89 4.18 4.42 6.4 10.45 2.21 6.03 2.09 13.16l-.12 5.41h-51.91l-2.95-11.19h38.74l-2.09 2.22v-2.46q-.24-3.08-1.91-5.36-1.66-2.27-4.3-3.62-2.64-1.36-5.97-1.36-4.92 0-8.3 1.91-3.38 1.91-5.1 5.47-1.72 3.57-1.72 8.86 0 5.29 2.27 9.35 2.28 4.06 6.64 6.27 4.37 2.21 10.4 2.21 4.06 0 7.38-1.23 3.32-1.23 7.13-4.18l9.23 13.04q-3.82 3.2-8.12 5.35-4.31 2.15-8.8 3.2-4.49 1.04-9.04 1.04"/>
    <rect width="64.251" height="67.89" x="-32.126" y="-33.945" fill="none" rx="0" ry="0" transform="translate(160.855 418.805)"/>
    <path fill="#fff" d="M227 452.25q-9.35 0-16.73-3.01-7.38-3.01-11.8-8.3l12.05-10.33q3.81 3.81 8.61 5.59 4.8 1.79 9.1 1.79 1.6 0 2.83-.37t2.15-1.05q.93-.67 1.42-1.6.49-.92.49-2.15 0-2.46-2.09-3.69-.99-.61-3.57-1.54-2.58-.92-6.64-1.9-5.78-1.48-10.03-3.57-4.24-2.09-6.94-4.8-2.46-2.46-3.76-5.66-1.29-3.19-1.29-7.13 0-6.03 3.63-10.58t9.53-7.07q5.91-2.52 12.8-2.52 5.41 0 10.27 1.23 4.85 1.23 9.1 3.44 4.24 2.22 7.56 5.29l-10.45 11.69q-2.09-2.09-4.92-3.76-2.83-1.66-5.66-2.7-2.83-1.05-5.29-1.05-1.84 0-3.26.31-1.41.31-2.34.98-.92.68-1.41 1.6-.49.93-.49 2.03 0 1.36.67 2.4.68 1.05 1.91 1.91 1.11.61 3.87 1.6 2.77.98 7.32 2.21 5.78 1.6 9.9 3.63 4.13 2.03 6.59 4.74 2.09 2.09 3.01 4.85.92 2.77.92 5.97 0 6.27-3.5 11.13-3.51 4.86-9.6 7.63-6.09 2.76-13.96 2.76"/>
    <rect width="55.59" height="67.89" x="-27.795" y="-33.945" fill="none" rx="0" ry="0" transform="translate(226.765 418.805)"/>
    <path fill="#fff" d="M296.5 452.25q-10.09 0-18.08-4.36-8-4.37-12.55-12.06-4.55-7.68-4.55-17.4 0-9.96 4.55-17.65 4.55-7.69 12.55-12.06 7.99-4.36 18.08-4.36 10.21 0 18.14 4.36 7.93 4.37 12.48 12.06 4.55 7.69 4.55 17.65 0 9.72-4.55 17.4-4.55 7.69-12.48 12.06-7.93 4.36-18.14 4.36m0-16.97q4.42 0 7.81-2.21 3.38-2.22 5.35-6.03 1.97-3.81 1.84-8.61.13-5.04-1.84-8.92-1.97-3.87-5.35-6.03-3.39-2.15-7.81-2.15-4.31 0-7.75 2.22-3.45 2.21-5.41 6.02-1.97 3.82-1.97 8.86 0 4.8 1.97 8.61 1.96 3.81 5.41 6.03 3.44 2.21 7.75 2.21"/>
    <rect width="70.35" height="67.89" x="-35.175" y="-33.945" fill="none" rx="0" ry="0" transform="translate(296.995 418.805)"/>
    <path fill="#fff" d="M383.83 452.25q-4.43 0-8.43-1.23t-7.32-3.26q-3.32-2.02-5.47-4.73-2.15-2.71-2.77-5.66l4.31-1.47-1.11 14.88h-18.45V360h19.93v40.96l-4.06-1.35q.73-3.07 2.83-5.78 2.09-2.71 5.22-4.86 3.14-2.15 6.95-3.38 3.82-1.23 7.87-1.23 8.49 0 15.07 4.43 6.58 4.42 10.4 12.11 3.81 7.69 3.81 17.53t-3.75 17.47q-3.75 7.62-10.27 11.99-6.52 4.36-14.76 4.36m-5.17-16.6q4.43 0 7.69-2.15 3.26-2.16 5.1-6.03 1.85-3.87 1.85-9.04 0-5.29-1.79-9.16-1.78-3.88-5.1-6.03-3.32-2.15-7.75-2.15t-7.75 2.15q-3.32 2.15-5.16 6.03-1.85 3.87-1.85 9.16 0 5.17 1.85 9.04 1.84 3.87 5.16 6.03 3.32 2.15 7.75 2.15"/>
    <rect width="68.02" height="92.25" x="-34.01" y="-46.125" fill="none" rx="0" ry="0" transform="translate(379.1 406.625)"/>
    <path fill="#fff" d="M425.52 451.02v-65.31h18.82l.86 21.28-3.69-4.18q1.6-5.17 4.92-9.35t7.94-6.64q4.61-2.46 9.65-2.46 2.22 0 4.12.31 1.91.3 3.39.92l-5.29 21.77q-1.36-.74-3.63-1.29-2.28-.56-4.74-.56-2.7 0-4.98.93-2.27.92-3.94 2.64-1.66 1.72-2.58 4.06-.92 2.34-.92 5.29v32.59Z"/>
    <rect width="46.01" height="66.66" x="-23.005" y="-33.33" fill="none" rx="0" ry="0" transform="translate(449.025 418.19)"/>
    <path fill="#fff" d="M513.71 451.02v-40.09q0-5.05-2.76-7.45-2.77-2.39-7.69-2.39-4.8 0-8.55 1.78-3.75 1.78-7.19 5.84l-11.81-11.44q5.9-6.02 13.53-9.47 7.62-3.44 16.6-3.44 8.24 0 14.27 2.46 6.03 2.46 9.35 7.5 3.32 5.04 3.32 12.79v43.91Zm-16.97 1.23q-6.15 0-11.13-2.46t-7.87-6.82q-2.89-4.37-2.89-10.27 0-5.05 1.84-8.86 1.85-3.81 5.47-6.33 3.63-2.52 9.11-3.82 5.47-1.29 12.73-1.29h19.8l-1.11 12.43h-18.2q-2.58 0-4.55.43-1.97.43-3.32 1.35-1.36.92-2.03 2.15-.68 1.23-.68 2.95 0 1.85.99 3.2.98 1.35 2.64 2.09 1.66.74 3.87.74 3.2 0 6.09-1.05 2.89-1.04 5.17-3.01 2.27-1.97 3.63-4.55l3.44 8.86q-2.58 4.18-6.21 7.38-3.63 3.19-7.87 5.04-4.25 1.84-8.92 1.84"/>
    <rect width="57.93" height="67.89" x="-28.965" y="-33.945" fill="none" rx="0" ry="0" transform="translate(504.315 418.805)"/>
    <path fill="#fff" d="M548.52 451.02v-65.31h18.82l.74 13.29-4.06 1.47q1.35-4.43 4.86-8.06 3.51-3.62 8.43-5.84 4.92-2.21 10.33-2.21 7.38 0 12.42 3.01 5.04 3.02 7.56 8.98 2.53 5.97 2.53 14.7v39.97h-19.81v-38.49q0-3.94-1.1-6.52-1.11-2.59-3.32-3.82-2.22-1.23-5.54-1.1-2.58 0-4.8.8-2.21.8-3.87 2.33-1.66 1.54-2.52 3.51-.86 1.97-.86 4.43v38.86h-15.69z"/>
    <rect width="61.63" height="66.66" x="-30.815" y="-33.33" fill="none" rx="0" ry="0" transform="translate(579.835 418.19)"/>
    <path fill="#fff" d="M651.6 452.25q-8.37 0-15.07-4.3-6.7-4.31-10.52-11.99-3.81-7.69-3.81-17.53t3.81-17.53q3.82-7.69 10.52-12.11 6.7-4.43 15.19-4.43 4.43 0 8.55 1.35 4.12 1.35 7.38 3.69t5.35 5.29q2.09 2.95 2.58 6.27l-4.79 1.11V360h19.8v91.02h-18.45l-1.11-14.76 3.94.74q-.25 2.95-2.22 5.72-1.96 2.77-5.22 4.92t-7.32 3.38q-4.06 1.23-8.61 1.23m4.92-16.35q4.55 0 7.81-2.16 3.26-2.15 5.1-6.09 1.85-3.93 1.85-9.22 0-5.41-1.85-9.35-1.84-3.93-5.1-6.09-3.26-2.15-7.81-2.15-4.43 0-7.69 2.15-3.26 2.16-5.1 6.09-1.85 3.94-1.85 9.35 0 5.29 1.85 9.22 1.84 3.94 5.1 6.09 3.26 2.16 7.69 2.16"/>
    <rect width="68.39" height="92.25" x="-34.195" y="-46.125" fill="none" rx="0" ry="0" transform="translate(656.895 406.625)"/>
    <path fill="#fff" d="M714.2 452.38q-5.04 0-7.81-2.89-2.76-2.89-2.76-8.18 0-4.92 2.89-8.06 2.89-3.14 7.68-3.14 5.05 0 7.88 2.89 2.83 2.9 2.83 8.31 0 4.92-3.02 7.99-3.01 3.08-7.69 3.08"/>
    <rect width="21.28" height="22.27" x="-10.64" y="-11.135" fill="none" rx="0" ry="0" transform="translate(714.77 441.745)"/>
</svg>
