<svg xmlns="http://www.w3.org/2000/svg" version="1.1" xmlns:xlink="http://www.w3.org/1999/xlink" width="1500" height="1500" viewBox="0 0 1500 1500"><rect width="1500" height="1500" x="0" y="0" id="background" stroke="transparent" fill="#001f3f"></rect><svg xml:space="preserve" width="1000" height="1000" data-version="2" data-id="lg_jfCOrw5GSjhc5Vudme" viewBox="0 0 397 61" x="250" y="250"><path fill="#fff" d="M3.855 58.43V17.01h11.94l.54 13.5-2.34-2.66q1.02-3.27 3.12-5.92 2.11-2.66 5.03-4.22 2.93-1.56 6.13-1.56 1.4 0 2.61.2 1.21.19 2.14.58l-3.35 13.81q-.86-.47-2.3-.82t-3-.35q-1.72 0-3.16.58-1.45.59-2.5 1.68-1.05 1.09-1.64 2.58-.58 1.48-.58 3.35v20.67Z"></path><rect width="29.17" height="42.28" x="-14.59" y="-21.14" fill="none" rx="0" ry="0" transform="translate(18.94 37.79)"></rect><path fill="#fff" d="M55.105 59.21q-6.87 0-11.97-2.73-5.11-2.73-7.88-7.53-2.77-4.79-2.77-10.96 0-4.83 1.56-8.85t4.41-6.9q2.84-2.89 6.7-4.49 3.86-1.6 8.47-1.6 4.36 0 7.95 1.56t6.24 4.37q2.65 2.81 4.06 6.63 1.4 3.82 1.32 8.35l-.07 3.43h-32.92l-1.87-7.1h24.57l-1.33 1.41v-1.56q-.15-1.95-1.21-3.4-1.05-1.44-2.73-2.3-1.67-.86-3.78-.86-3.12 0-5.26 1.21-2.15 1.21-3.24 3.47-1.09 2.27-1.09 5.62t1.44 5.93q1.44 2.57 4.21 3.98 2.77 1.4 6.59 1.4 2.58 0 4.68-.78 2.11-.78 4.53-2.65l5.85 8.27q-2.42 2.02-5.15 3.39-2.73 1.36-5.58 2.03-2.85.66-5.73.66"></path><rect width="40.74" height="43.06" x="-20.37" y="-21.53" fill="none" rx="0" ry="0" transform="translate(53.35 38.18)"></rect><path fill="#fff" d="M92.775 59.21q-5.93 0-10.61-1.91t-7.48-5.27l7.64-6.55q2.42 2.42 5.46 3.55t5.77 1.13q1.02 0 1.8-.23.78-.24 1.36-.67.59-.42.9-1.01.31-.58.31-1.36 0-1.56-1.33-2.34-.62-.39-2.26-.98-1.64-.58-4.21-1.21-3.67-.93-6.36-2.26-2.69-1.33-4.4-3.04-1.56-1.56-2.38-3.59-.82-2.03-.82-4.52 0-3.83 2.3-6.71 2.3-2.89 6.04-4.49 3.75-1.6 8.12-1.6 3.43 0 6.51.78 3.08.78 5.77 2.19 2.69 1.4 4.8 3.35l-6.63 7.41q-1.33-1.32-3.12-2.38-1.8-1.05-3.59-1.71-1.79-.67-3.35-.67-1.17 0-2.07.2-.9.19-1.48.62-.59.43-.9 1.02-.31.58-.31 1.28 0 .86.43 1.52.43.67 1.21 1.21.7.39 2.45 1.02 1.76.62 4.64 1.4 3.67 1.02 6.28 2.3 2.62 1.29 4.18 3.01 1.32 1.32 1.91 3.08.58 1.75.58 3.78 0 3.98-2.22 7.06-2.22 3.08-6.08 4.83-3.87 1.76-8.86 1.76"></path><rect width="35.25" height="43.06" x="-17.63" y="-21.53" fill="none" rx="0" ry="0" transform="translate(92.81 38.18)"></rect><path fill="#fff" d="M134.505 59.21q-6.39 0-11.46-2.77-5.07-2.77-7.96-7.64-2.89-4.88-2.89-11.04 0-6.32 2.89-11.19 2.89-4.88 7.96-7.65 5.07-2.77 11.46-2.77 6.48 0 11.51 2.77 5.03 2.77 7.91 7.65 2.89 4.87 2.89 11.19 0 6.16-2.89 11.04-2.88 4.87-7.91 7.64-5.03 2.77-11.51 2.77m0-10.76q2.81 0 4.96-1.41 2.14-1.4 3.39-3.82t1.17-5.46q.08-3.2-1.17-5.66-1.25-2.45-3.39-3.82-2.15-1.36-4.96-1.36-2.73 0-4.91 1.4-2.18 1.41-3.43 3.82-1.25 2.42-1.25 5.62 0 3.04 1.25 5.46t3.43 3.82q2.18 1.41 4.91 1.41"></path><rect width="44.62" height="43.06" x="-22.31" y="-21.53" fill="none" rx="0" ry="0" transform="translate(135 38.18)"></rect><path fill="#fff" d="M187.545 59.21q-2.81 0-5.34-.78t-4.64-2.07q-2.11-1.28-3.47-3-1.37-1.72-1.76-3.59l2.73-.93-.7 9.43h-11.7V.71h12.64v25.97l-2.58-.85q.47-1.95 1.8-3.67 1.32-1.72 3.31-3.08 1.99-1.37 4.41-2.15 2.42-.78 4.99-.78 5.38 0 9.56 2.81 4.17 2.81 6.59 7.68 2.42 4.88 2.42 11.12 0 6.24-2.38 11.08-2.38 4.83-6.52 7.6-4.13 2.77-9.36 2.77m-3.27-10.53q2.8 0 4.87-1.37 2.07-1.36 3.24-3.82 1.17-2.45 1.17-5.73 0-3.35-1.13-5.81-1.13-2.46-3.24-3.82-2.11-1.37-4.91-1.37-2.81 0-4.92 1.37-2.1 1.36-3.27 3.82t-1.17 5.81q0 3.28 1.17 5.73 1.17 2.46 3.27 3.82 2.11 1.37 4.92 1.37"></path><rect width="43.14" height="58.5" x="-21.57" y="-29.25" fill="none" rx="0" ry="0" transform="translate(184.74 30.46)"></rect><path fill="#fff" d="M211.655 58.43V17.01h11.93l.55 13.5-2.34-2.66q1.01-3.27 3.12-5.92 2.1-2.66 5.03-4.22 2.92-1.56 6.12-1.56 1.4 0 2.61.2 1.21.19 2.15.58l-3.36 13.81q-.85-.47-2.3-.82-1.44-.35-3-.35-1.72 0-3.16.58-1.44.59-2.5 1.68-1.05 1.09-1.63 2.58-.59 1.48-.59 3.35v20.67Z"></path><rect width="29.17" height="42.28" x="-14.59" y="-21.14" fill="none" rx="0" ry="0" transform="translate(226.74 37.79)"></rect><path fill="#fff" d="M265.235 58.43V33q0-3.2-1.75-4.72-1.76-1.52-4.88-1.52-3.04 0-5.42 1.13t-4.56 3.71l-7.49-7.26q3.74-3.82 8.58-6 4.83-2.19 10.53-2.19 5.22 0 9.05 1.56 3.82 1.56 5.92 4.76 2.11 3.2 2.11 8.11v27.85Zm-10.76.78q-3.9 0-7.06-1.56-3.16-1.56-4.99-4.33-1.84-2.77-1.84-6.51 0-3.2 1.17-5.62t3.47-4.02q2.3-1.59 5.78-2.41 3.47-.82 8.07-.82h12.56l-.71 7.88h-11.54q-1.64 0-2.89.27-1.24.27-2.1.86-.86.58-1.29 1.36-.43.78-.43 1.87 0 1.17.63 2.03.62.86 1.67 1.33 1.06.47 2.46.47 2.03 0 3.86-.67 1.83-.66 3.28-1.91 1.44-1.25 2.3-2.88l2.18 5.61q-1.64 2.65-3.94 4.68t-4.99 3.2q-2.69 1.17-5.65 1.17"></path><rect width="36.74" height="43.06" x="-18.37" y="-21.53" fill="none" rx="0" ry="0" transform="translate(259.45 38.18)"></rect><path fill="#fff" d="M284.965 58.43V17.01h11.94l.47 8.43-2.58.93q.86-2.81 3.08-5.11 2.23-2.3 5.35-3.7 3.12-1.41 6.55-1.41 4.68 0 7.88 1.91 3.19 1.92 4.79 5.7 1.6 3.78 1.6 9.32v25.35h-12.56V34.02q0-2.5-.7-4.14-.7-1.64-2.1-2.42-1.41-.78-3.51-.7-1.64 0-3.05.51-1.4.51-2.45 1.48-1.06.98-1.6 2.22-.55 1.25-.55 2.81v24.65h-9.94z"></path><rect width="39.08" height="42.28" x="-19.54" y="-21.14" fill="none" rx="0" ry="0" transform="translate(305 37.79)"></rect><path fill="#fff" d="M347.995 59.21q-5.31 0-9.56-2.73-4.25-2.73-6.66-7.61-2.42-4.87-2.42-11.11 0-6.24 2.42-11.12 2.41-4.87 6.66-7.68 4.25-2.81 9.64-2.81 2.8 0 5.42.86 2.61.86 4.68 2.34 2.06 1.48 3.39 3.36 1.33 1.87 1.64 3.97l-3.04.71V.71h12.55v57.72h-11.69l-.71-9.36 2.5.47q-.16 1.87-1.4 3.62-1.25 1.76-3.32 3.12-2.07 1.37-4.64 2.15-2.58.78-5.46.78m3.12-10.37q2.88 0 4.95-1.37 2.07-1.36 3.24-3.86 1.17-2.5 1.17-5.85 0-3.43-1.17-5.93-1.17-2.49-3.24-3.86-2.07-1.36-4.95-1.36-2.81 0-4.88 1.36-2.06 1.37-3.23 3.86-1.17 2.5-1.17 5.93 0 3.35 1.17 5.85 1.17 2.5 3.23 3.86 2.07 1.37 4.88 1.37"></path><rect width="43.36" height="58.5" x="-21.68" y="-29.25" fill="none" rx="0" ry="0" transform="translate(351.54 30.46)"></rect><path fill="#3d9970" d="M385.355 59.29q-3.2 0-4.95-1.84-1.76-1.83-1.76-5.18 0-3.12 1.84-5.11 1.83-1.99 4.87-1.99 3.2 0 4.99 1.83 1.8 1.84 1.8 5.27 0 3.12-1.91 5.07-1.92 1.95-4.88 1.95"></path><rect width="13.5" height="14.12" x="-6.75" y="-7.06" fill="none" rx="0" ry="0" transform="translate(385.9 52.73)"></rect></svg></svg>