<svg xmlns="http://www.w3.org/2000/svg" xml:space="preserve" width="192" height="192" data-version="2">
    <path d="M64.67 141.41v-82.6h37.4q8.03 0 14.4 3.42 6.37 3.42 10.09 9.38 3.72 5.96 3.72 13.63 0 7.79-3.72 13.92-3.72 6.14-10.09 9.74-6.37 3.6-14.4 3.6H83.9v28.91Zm45.9 0-21-37.41 20.65-2.95 23.36 40.48ZM83.9 96.8h16.4q3.07 0 5.37-1.35 2.3-1.36 3.54-3.72 1.24-2.36 1.24-5.43 0-3.18-1.47-5.54-1.48-2.36-4.13-3.72-2.66-1.36-6.32-1.36H83.9Z" paint-order="stroke"/>
    <rect width="68.91" height="82.72" x="-34.455" y="-41.36" fill="none" rx="0" ry="0" transform="translate(99.625 100.67)"/>
</svg>
