<svg xmlns="http://www.w3.org/2000/svg" xml:space="preserve" width="16" height="16" data-version="2">
    <path fill="#fff" d="M5.61 11.46v-6.3h2.85q.61 0 1.1.26.49.26.77.72.28.45.28 1.04 0 .59-.28 1.06-.28.47-.77.74-.49.28-1.1.28H7.08v2.2Zm3.5 0-1.6-2.85 1.57-.23 1.79 3.09Zm-2.03-3.4h1.25q.23 0 .41-.1.17-.11.27-.29.09-.18.09-.41 0-.24-.11-.42t-.32-.29q-.2-.1-.48-.1H7.08Z" paint-order="stroke"/>
    <rect width="5.26" height="6.31" x="-2.63" y="-3.155" fill="none" rx="0" ry="0" transform="translate(8.74 8.815)"/>
</svg>
